<svg width="63" height="70" viewBox="0 0 63 70" fill="none" xmlns="http://www.w3.org/2000/svg">
<path d="M48.7376 27.1575V20.6579H60.2323V7.8599H48.7376V0H35.7921V27.1575C35.7921 28.6766 35.9197 30.1654 36.1612 31.6165C31.8562 22.3131 22.4046 15.8543 11.4355 15.8543H0V40.0931H11.4355V28.7023C19.3179 28.7023 25.7314 35.0839 25.7314 42.9272C25.7314 50.7704 19.3179 57.1521 11.4355 57.1521V70C26.462 70 38.6434 57.8791 38.6434 42.9272C38.6434 41.4081 38.5158 39.9192 38.2742 38.4682C42.5793 47.7716 52.0309 54.2303 63 54.2303V41.3824C55.1176 41.3824 48.7376 35.0008 48.7376 27.1575Z" fill="#DD1C4A"/>
</svg>
